<?xml version="1.0" encoding="UTF-8" standalone="no"?>
<!DOCTYPE svg PUBLIC "-//W3C//DTD SVG 1.1//EN"
 "http://www.w3.org/Graphics/SVG/1.1/DTD/svg11.dtd">
<!-- Generated by graphviz version 2.44.0 (20200408.0750)
 -->
<!-- Pages: 1 -->
<svg width="522pt" height="456pt"
 viewBox="0.00 0.00 522.00 456.00" xmlns="http://www.w3.org/2000/svg" xmlns:xlink="http://www.w3.org/1999/xlink">
<g id="graph0" class="graph" transform="scale(1 1) rotate(0) translate(36 420)">
<polygon fill="white" stroke="transparent" points="-36,36 -36,-420 486,-420 486,36 -36,36"/>
<!-- x0 -->
<g id="node1" class="node">
<title>x0</title>
<ellipse fill="none" stroke="black" cx="218" cy="-366" rx="18" ry="18"/>
<text text-anchor="middle" x="218" y="-362.3" font-family="Times,serif" font-size="14.00">1</text>
</g>
<!-- y1 -->
<g id="node2" class="node">
<title>y1</title>
<ellipse fill="none" stroke="black" cx="167" cy="-279" rx="18" ry="18"/>
<text text-anchor="middle" x="167" y="-275.3" font-family="Times,serif" font-size="14.00">2</text>
</g>
<!-- x0&#45;&gt;y1 -->
<g id="edge1" class="edge">
<title>x0&#45;&gt;y1</title>
<path fill="none" stroke="black" d="M209.12,-350.19C201.41,-337.35 190.12,-318.54 181.17,-303.62"/>
<polygon fill="black" stroke="black" points="184.1,-301.7 175.95,-294.92 178.1,-305.3 184.1,-301.7"/>
<text text-anchor="middle" x="171.11" y="-326.48" font-family="Times,serif" font-size="14.00">escalate</text>
</g>
<!-- y2 -->
<g id="node3" class="node">
<title>y2</title>
<polygon fill="none" stroke="black" points="297,-297 243,-297 243,-261 297,-261 297,-297"/>
<text text-anchor="middle" x="270" y="-275.3" font-family="Times,serif" font-size="14.00">0/0</text>
</g>
<!-- x0&#45;&gt;y2 -->
<g id="edge2" class="edge">
<title>x0&#45;&gt;y2</title>
<path fill="none" stroke="black" d="M227.06,-350.19C234.53,-337.98 245.3,-320.37 254.19,-305.84"/>
<polygon fill="black" stroke="black" points="257.2,-307.63 259.43,-297.27 251.23,-303.98 257.2,-307.63"/>
<text text-anchor="middle" x="265.5" y="-318.8" font-family="Times,serif" font-size="14.00">ignore</text>
</g>
<!-- x3 -->
<g id="node4" class="node">
<title>x3</title>
<polygon fill="none" stroke="black" points="148,-210 94,-210 94,-174 148,-174 148,-210"/>
<text text-anchor="middle" x="121" y="-188.3" font-family="Times,serif" font-size="14.00">10/&#45;10</text>
</g>
<!-- y1&#45;&gt;x3 -->
<g id="edge3" class="edge">
<title>y1&#45;&gt;x3</title>
<path fill="none" stroke="black" d="M158.78,-262.8C152.2,-250.66 142.84,-233.36 135.08,-219.02"/>
<polygon fill="black" stroke="black" points="138.1,-217.24 130.26,-210.11 131.94,-220.57 138.1,-217.24"/>
<text text-anchor="middle" x="116.65" y="-240.5" font-family="Times,serif" font-size="14.00">backdown</text>
</g>
<!-- x4 -->
<g id="node5" class="node">
<title>x4</title>
<ellipse fill="none" stroke="black" cx="224" cy="-192" rx="18" ry="18"/>
<text text-anchor="middle" x="224" y="-188.3" font-family="Times,serif" font-size="14.00">1</text>
</g>
<!-- y1&#45;&gt;x4 -->
<g id="edge4" class="edge">
<title>y1&#45;&gt;x4</title>
<path fill="none" stroke="black" d="M176.67,-263.58C185.43,-250.51 198.49,-231.04 208.67,-215.85"/>
<polygon fill="black" stroke="black" points="211.62,-217.74 214.28,-207.49 205.81,-213.85 211.62,-217.74"/>
<text text-anchor="middle" x="222" y="-231.8" font-family="Times,serif" font-size="14.00">confront</text>
</g>
<!-- y5 -->
<g id="node6" class="node">
<title>y5</title>
<ellipse fill="none" stroke="black" cx="141" cy="-105" rx="18" ry="18"/>
<text text-anchor="middle" x="141" y="-101.3" font-family="Times,serif" font-size="14.00">2</text>
</g>
<!-- x4&#45;&gt;y5 -->
<g id="edge5" class="edge">
<title>x4&#45;&gt;y5</title>
<path fill="none" stroke="black" d="M211.75,-178.46C198.27,-164.65 176.4,-142.25 160.54,-126.01"/>
<polygon fill="black" stroke="black" points="162.79,-123.3 153.3,-118.59 157.78,-128.19 162.79,-123.3"/>
<text text-anchor="middle" x="164.81" y="-152.1" font-family="Times,serif" font-size="14.00">retreat</text>
</g>
<!-- y6 -->
<g id="node7" class="node">
<title>y6</title>
<ellipse fill="none" stroke="black" cx="293" cy="-105" rx="18" ry="18"/>
<text text-anchor="middle" x="293" y="-101.3" font-family="Times,serif" font-size="14.00">2</text>
</g>
<!-- x4&#45;&gt;y6 -->
<g id="edge6" class="edge">
<title>x4&#45;&gt;y6</title>
<path fill="none" stroke="black" d="M235.09,-177.34C245.95,-163.96 262.68,-143.35 275.37,-127.72"/>
<polygon fill="black" stroke="black" points="278.36,-129.59 281.94,-119.62 272.92,-125.18 278.36,-129.59"/>
<text text-anchor="middle" x="283" y="-144.8" font-family="Times,serif" font-size="14.00">nuclear</text>
</g>
<!-- y5&#45;&gt;y6 -->
<g id="edge11" class="edge">
<title>y5&#45;&gt;y6</title>
<path fill="none" stroke="black" stroke-dasharray="5,2" d="M159.11,-105C197.72,-105 236.34,-105 274.96,-105"/>
</g>
<!-- l1 -->
<g id="node8" class="node">
<title>l1</title>
<polygon fill="none" stroke="black" points="54,-36 0,-36 0,0 54,0 54,-36"/>
<text text-anchor="middle" x="27" y="-14.3" font-family="Times,serif" font-size="14.00">&#45;5/&#45;5</text>
</g>
<!-- y5&#45;&gt;l1 -->
<g id="edge7" class="edge">
<title>y5&#45;&gt;l1</title>
<path fill="none" stroke="black" d="M127.02,-93.58C110.05,-80.92 80.9,-59.19 58.43,-42.44"/>
<polygon fill="black" stroke="black" points="60.3,-39.46 50.19,-36.29 56.11,-45.07 60.3,-39.46"/>
<text text-anchor="middle" x="108.5" y="-57.8" font-family="Times,serif" font-size="14.00">retreat</text>
</g>
<!-- l2 -->
<g id="node9" class="node">
<title>l2</title>
<polygon fill="none" stroke="black" points="182,-36 112,-36 112,0 182,0 182,-36"/>
<text text-anchor="middle" x="147" y="-14.3" font-family="Times,serif" font-size="14.00">&#45;100/&#45;100</text>
</g>
<!-- y5&#45;&gt;l2 -->
<g id="edge8" class="edge">
<title>y5&#45;&gt;l2</title>
<path fill="none" stroke="black" d="M142.21,-86.8C143.04,-75.16 144.14,-59.55 145.08,-46.24"/>
<polygon fill="black" stroke="black" points="148.57,-46.4 145.79,-36.18 141.59,-45.9 148.57,-46.4"/>
<text text-anchor="middle" x="165" y="-57.8" font-family="Times,serif" font-size="14.00">nuclear</text>
</g>
<!-- l3 -->
<g id="node10" class="node">
<title>l3</title>
<polygon fill="none" stroke="black" points="322,-36 252,-36 252,0 322,0 322,-36"/>
<text text-anchor="middle" x="287" y="-14.3" font-family="Times,serif" font-size="14.00">&#45;100/&#45;100</text>
</g>
<!-- y6&#45;&gt;l3 -->
<g id="edge9" class="edge">
<title>y6&#45;&gt;l3</title>
<path fill="none" stroke="black" d="M291.79,-86.8C290.96,-75.16 289.86,-59.55 288.92,-46.24"/>
<polygon fill="black" stroke="black" points="292.41,-45.9 288.21,-36.18 285.43,-46.4 292.41,-45.9"/>
<text text-anchor="middle" x="308.5" y="-57.8" font-family="Times,serif" font-size="14.00">retreat</text>
</g>
<!-- l4 -->
<g id="node11" class="node">
<title>l4</title>
<polygon fill="none" stroke="black" points="450,-36 380,-36 380,0 450,0 450,-36"/>
<text text-anchor="middle" x="415" y="-14.3" font-family="Times,serif" font-size="14.00">&#45;100/&#45;100</text>
</g>
<!-- y6&#45;&gt;l4 -->
<g id="edge10" class="edge">
<title>y6&#45;&gt;l4</title>
<path fill="none" stroke="black" d="M307.47,-93.92C325.77,-81.17 357.81,-58.85 382.17,-41.88"/>
<polygon fill="black" stroke="black" points="384.22,-44.71 390.43,-36.12 380.22,-38.97 384.22,-44.71"/>
<text text-anchor="middle" x="382" y="-57.8" font-family="Times,serif" font-size="14.00">nuclear</text>
</g>
</g>
</svg>
