<?xml version="1.0" encoding="UTF-8" standalone="no"?>
<!DOCTYPE svg PUBLIC "-//W3C//DTD SVG 1.1//EN"
 "http://www.w3.org/Graphics/SVG/1.1/DTD/svg11.dtd">
<!-- Generated by graphviz version 2.44.0 (20200408.0750)
 -->
<!-- Pages: 1 -->
<svg width="445pt" height="87pt"
 viewBox="0.00 0.00 445.40 86.51" xmlns="http://www.w3.org/2000/svg" xmlns:xlink="http://www.w3.org/1999/xlink">
<g id="graph0" class="graph" transform="scale(1 1) rotate(0) translate(7.2 79.31)">
<polygon fill="white" stroke="transparent" points="-7.2,7.2 -7.2,-79.31 438.2,-79.31 438.2,7.2 -7.2,7.2"/>
<!-- x0 -->
<g id="node1" class="node">
<title>x0</title>
<ellipse fill="none" stroke="black" cx="27" cy="-56.56" rx="15.61" ry="15.61"/>
<text text-anchor="middle" x="27" y="-54.06" font-family="Times,serif" font-size="10.00">1</text>
</g>
<!-- x1 -->
<g id="node2" class="node">
<title>x1</title>
<ellipse fill="none" stroke="black" cx="124" cy="-56.56" rx="15.61" ry="15.61"/>
<text text-anchor="middle" x="124" y="-54.06" font-family="Times,serif" font-size="10.00">2</text>
</g>
<!-- x0&#45;&gt;x1 -->
<g id="edge6" class="edge">
<title>x0&#45;&gt;x1</title>
<path fill="none" stroke="black" d="M42.91,-56.56C62.62,-56.56 82.34,-56.56 102.05,-56.56"/>
<polygon fill="black" stroke="black" points="102.16,-58.66 108.16,-56.56 102.16,-54.46 102.16,-58.66"/>
</g>
<!-- y0 -->
<g id="node5" class="node">
<title>y0</title>
<polygon fill="none" stroke="black" points="54,-19 0,-19 0,0 54,0 54,-19"/>
<text text-anchor="middle" x="27" y="-7" font-family="Times,serif" font-size="10.00">1/1</text>
</g>
<!-- x0&#45;&gt;y0 -->
<g id="edge1" class="edge">
<title>x0&#45;&gt;y0</title>
<path fill="none" stroke="black" d="M27,-40.8C27,-35.86 27,-30.35 27,-25.4"/>
<polygon fill="black" stroke="black" points="29.1,-25.1 27,-19.1 24.9,-25.1 29.1,-25.1"/>
</g>
<!-- x2 -->
<g id="node3" class="node">
<title>x2</title>
<ellipse fill="none" stroke="black" cx="221" cy="-56.56" rx="15.61" ry="15.61"/>
<text text-anchor="middle" x="221" y="-54.06" font-family="Times,serif" font-size="10.00">1</text>
</g>
<!-- x1&#45;&gt;x2 -->
<g id="edge7" class="edge">
<title>x1&#45;&gt;x2</title>
<path fill="none" stroke="black" d="M139.91,-56.56C159.62,-56.56 179.34,-56.56 199.05,-56.56"/>
<polygon fill="black" stroke="black" points="199.16,-58.66 205.16,-56.56 199.16,-54.46 199.16,-58.66"/>
</g>
<!-- y1 -->
<g id="node6" class="node">
<title>y1</title>
<polygon fill="none" stroke="black" points="151,-19 97,-19 97,0 151,0 151,-19"/>
<text text-anchor="middle" x="124" y="-7" font-family="Times,serif" font-size="10.00">1/2</text>
</g>
<!-- x1&#45;&gt;y1 -->
<g id="edge2" class="edge">
<title>x1&#45;&gt;y1</title>
<path fill="none" stroke="black" d="M124,-40.8C124,-35.86 124,-30.35 124,-25.4"/>
<polygon fill="black" stroke="black" points="126.1,-25.1 124,-19.1 121.9,-25.1 126.1,-25.1"/>
</g>
<!-- x3 -->
<g id="node4" class="node">
<title>x3</title>
<ellipse fill="none" stroke="black" cx="318" cy="-56.56" rx="15.61" ry="15.61"/>
<text text-anchor="middle" x="318" y="-54.06" font-family="Times,serif" font-size="10.00">2</text>
</g>
<!-- x2&#45;&gt;x3 -->
<g id="edge8" class="edge">
<title>x2&#45;&gt;x3</title>
<path fill="none" stroke="black" d="M236.91,-56.56C256.62,-56.56 276.34,-56.56 296.05,-56.56"/>
<polygon fill="black" stroke="black" points="296.16,-58.66 302.16,-56.56 296.16,-54.46 296.16,-58.66"/>
</g>
<!-- y2 -->
<g id="node7" class="node">
<title>y2</title>
<polygon fill="none" stroke="black" points="248,-19 194,-19 194,0 248,0 248,-19"/>
<text text-anchor="middle" x="221" y="-7" font-family="Times,serif" font-size="10.00">3/1</text>
</g>
<!-- x2&#45;&gt;y2 -->
<g id="edge3" class="edge">
<title>x2&#45;&gt;y2</title>
<path fill="none" stroke="black" d="M221,-40.8C221,-35.86 221,-30.35 221,-25.4"/>
<polygon fill="black" stroke="black" points="223.1,-25.1 221,-19.1 218.9,-25.1 223.1,-25.1"/>
</g>
<!-- y3 -->
<g id="node8" class="node">
<title>y3</title>
<polygon fill="none" stroke="black" points="345,-19 291,-19 291,0 345,0 345,-19"/>
<text text-anchor="middle" x="318" y="-7" font-family="Times,serif" font-size="10.00">1/4</text>
</g>
<!-- x3&#45;&gt;y3 -->
<g id="edge4" class="edge">
<title>x3&#45;&gt;y3</title>
<path fill="none" stroke="black" d="M318,-40.8C318,-35.86 318,-30.35 318,-25.4"/>
<polygon fill="black" stroke="black" points="320.1,-25.1 318,-19.1 315.9,-25.1 320.1,-25.1"/>
</g>
<!-- y4 -->
<g id="node9" class="node">
<title>y4</title>
<polygon fill="none" stroke="black" points="431,-66.06 377,-66.06 377,-47.06 431,-47.06 431,-66.06"/>
<text text-anchor="middle" x="404" y="-54.06" font-family="Times,serif" font-size="10.00">3/3</text>
</g>
<!-- x3&#45;&gt;y4 -->
<g id="edge5" class="edge">
<title>x3&#45;&gt;y4</title>
<path fill="none" stroke="black" d="M333.79,-56.56C346.12,-56.56 358.46,-56.56 370.79,-56.56"/>
<polygon fill="black" stroke="black" points="370.85,-58.66 376.85,-56.56 370.85,-54.46 370.85,-58.66"/>
</g>
</g>
</svg>
