<?xml version="1.0" encoding="UTF-8" standalone="no"?>
<!DOCTYPE svg PUBLIC "-//W3C//DTD SVG 1.1//EN"
 "http://www.w3.org/Graphics/SVG/1.1/DTD/svg11.dtd">
<!-- Generated by graphviz version 2.44.0 (20200408.0750)
 -->
<!-- Pages: 1 -->
<svg width="202pt" height="162pt"
 viewBox="0.00 0.00 202.40 161.63" xmlns="http://www.w3.org/2000/svg" xmlns:xlink="http://www.w3.org/1999/xlink">
<g id="graph0" class="graph" transform="scale(1 1) rotate(0) translate(7.2 154.43)">
<polygon fill="white" stroke="transparent" points="-7.2,7.2 -7.2,-154.43 195.2,-154.43 195.2,7.2 -7.2,7.2"/>
<!-- x0 -->
<g id="node1" class="node">
<title>x0</title>
<ellipse fill="none" stroke="black" cx="118" cy="-131.67" rx="15.61" ry="15.61"/>
<text text-anchor="middle" x="118" y="-129.17" font-family="Times,serif" font-size="10.00">1</text>
</g>
<!-- x1 -->
<g id="node2" class="node">
<title>x1</title>
<ellipse fill="none" stroke="black" cx="75" cy="-67.56" rx="15.61" ry="15.61"/>
<text text-anchor="middle" x="75" y="-65.06" font-family="Times,serif" font-size="10.00">2</text>
</g>
<!-- x0&#45;&gt;x1 -->
<g id="edge2" class="edge">
<title>x0&#45;&gt;x1</title>
<path fill="none" stroke="black" d="M109.5,-118.4C103.09,-109.12 94.19,-96.27 87.04,-85.94"/>
<polygon fill="black" stroke="black" points="88.62,-84.54 83.48,-80.8 85.17,-86.93 88.62,-84.54"/>
<text text-anchor="middle" x="85.7" y="-102.91" font-family="Times,serif" font-size="10.00">Enter</text>
</g>
<!-- y0 -->
<g id="node3" class="node">
<title>y0</title>
<polygon fill="none" stroke="black" points="188,-77.06 134,-77.06 134,-58.06 188,-58.06 188,-77.06"/>
<text text-anchor="middle" x="161" y="-65.06" font-family="Times,serif" font-size="10.00">0/2</text>
</g>
<!-- x0&#45;&gt;y0 -->
<g id="edge1" class="edge">
<title>x0&#45;&gt;y0</title>
<path fill="none" stroke="black" d="M126.5,-118.4C133.67,-108.04 143.93,-93.22 151.39,-82.43"/>
<polygon fill="black" stroke="black" points="153.32,-83.33 155.01,-77.21 149.87,-80.94 153.32,-83.33"/>
<text text-anchor="middle" x="150" y="-97.11" font-family="Times,serif" font-size="10.00">Out</text>
</g>
<!-- y1 -->
<g id="node4" class="node">
<title>y1</title>
<polygon fill="none" stroke="black" points="54,-19 0,-19 0,0 54,0 54,-19"/>
<text text-anchor="middle" x="27" y="-7" font-family="Times,serif" font-size="10.00">&#45;1/&#45;1</text>
</g>
<!-- x1&#45;&gt;y1 -->
<g id="edge3" class="edge">
<title>x1&#45;&gt;y1</title>
<path fill="none" stroke="black" d="M65.29,-55.21C57.54,-46.17 46.68,-33.48 38.5,-23.93"/>
<polygon fill="black" stroke="black" points="39.99,-22.45 34.5,-19.25 36.8,-25.18 39.99,-22.45"/>
<text text-anchor="middle" x="64" y="-33" font-family="Times,serif" font-size="10.00">Fight</text>
</g>
<!-- y2 -->
<g id="node5" class="node">
<title>y2</title>
<polygon fill="none" stroke="black" points="151,-19 97,-19 97,0 151,0 151,-19"/>
<text text-anchor="middle" x="124" y="-7" font-family="Times,serif" font-size="10.00">1/1</text>
</g>
<!-- x1&#45;&gt;y2 -->
<g id="edge4" class="edge">
<title>x1&#45;&gt;y2</title>
<path fill="none" stroke="black" d="M84.92,-55.21C92.82,-46.17 103.91,-33.48 112.26,-23.93"/>
<polygon fill="black" stroke="black" points="113.98,-25.15 116.35,-19.25 110.82,-22.39 113.98,-25.15"/>
<text text-anchor="middle" x="115.68" y="-40.18" font-family="Times,serif" font-size="10.00">Accept</text>
</g>
</g>
</svg>
