<?xml version="1.0" encoding="UTF-8" standalone="no"?>
<!DOCTYPE svg PUBLIC "-//W3C//DTD SVG 1.1//EN"
 "http://www.w3.org/Graphics/SVG/1.1/DTD/svg11.dtd">
<!-- Generated by graphviz version 2.44.0 (20200408.0750)
 -->
<!-- Pages: 1 -->
<svg width="203pt" height="162pt"
 viewBox="0.00 0.00 203.40 161.63" xmlns="http://www.w3.org/2000/svg" xmlns:xlink="http://www.w3.org/1999/xlink">
<g id="graph0" class="graph" transform="scale(1 1) rotate(0) translate(7.2 154.43)">
<polygon fill="white" stroke="transparent" points="-7.2,7.2 -7.2,-154.43 196.2,-154.43 196.2,7.2 -7.2,7.2"/>
<!-- x0 -->
<g id="node1" class="node">
<title>x0</title>
<ellipse fill="none" stroke="black" cx="119" cy="-131.67" rx="15.61" ry="15.61"/>
<text text-anchor="middle" x="119" y="-129.17" font-family="Times,serif" font-size="10.00">1</text>
</g>
<!-- y1 -->
<g id="node2" class="node">
<title>y1</title>
<ellipse fill="none" stroke="black" cx="76" cy="-67.56" rx="15.61" ry="15.61"/>
<text text-anchor="middle" x="76" y="-65.06" font-family="Times,serif" font-size="10.00">2</text>
</g>
<!-- x0&#45;&gt;y1 -->
<g id="edge1" class="edge">
<title>x0&#45;&gt;y1</title>
<path fill="none" stroke="black" d="M110.5,-118.4C104.09,-109.12 95.19,-96.27 88.04,-85.94"/>
<polygon fill="black" stroke="black" points="89.62,-84.54 84.48,-80.8 86.17,-86.93 89.62,-84.54"/>
<text text-anchor="middle" x="81.2" y="-102.91" font-family="Times,serif" font-size="10.00">escalate</text>
</g>
<!-- y2 -->
<g id="node3" class="node">
<title>y2</title>
<polygon fill="none" stroke="black" points="189,-77.06 135,-77.06 135,-58.06 189,-58.06 189,-77.06"/>
<text text-anchor="middle" x="162" y="-65.06" font-family="Times,serif" font-size="10.00">0/0</text>
</g>
<!-- x0&#45;&gt;y2 -->
<g id="edge2" class="edge">
<title>x0&#45;&gt;y2</title>
<path fill="none" stroke="black" d="M127.5,-118.4C134.67,-108.04 144.93,-93.22 152.39,-82.43"/>
<polygon fill="black" stroke="black" points="154.32,-83.33 156.01,-77.21 150.87,-80.94 154.32,-83.33"/>
<text text-anchor="middle" x="157.5" y="-97.11" font-family="Times,serif" font-size="10.00">ignore</text>
</g>
<!-- x3 -->
<g id="node4" class="node">
<title>x3</title>
<polygon fill="none" stroke="black" points="54,-19 0,-19 0,0 54,0 54,-19"/>
<text text-anchor="middle" x="27" y="-7" font-family="Times,serif" font-size="10.00">10/&#45;10</text>
</g>
<!-- y1&#45;&gt;x3 -->
<g id="edge3" class="edge">
<title>y1&#45;&gt;x3</title>
<path fill="none" stroke="black" d="M66.08,-55.21C58.18,-46.17 47.09,-33.48 38.74,-23.93"/>
<polygon fill="black" stroke="black" points="40.18,-22.39 34.65,-19.25 37.02,-25.15 40.18,-22.39"/>
<text text-anchor="middle" x="28.82" y="-40.18" font-family="Times,serif" font-size="10.00">backdown</text>
</g>
<!-- x4 -->
<g id="node5" class="node">
<title>x4</title>
<polygon fill="none" stroke="black" points="154.5,-19 97.5,-19 97.5,0 154.5,0 154.5,-19"/>
<text text-anchor="middle" x="126" y="-7" font-family="Times,serif" font-size="10.00">&#45;100/&#45;100</text>
</g>
<!-- y1&#45;&gt;x4 -->
<g id="edge4" class="edge">
<title>y1&#45;&gt;x4</title>
<path fill="none" stroke="black" d="M85.88,-55.48C93.92,-46.46 105.32,-33.69 113.91,-24.06"/>
<polygon fill="black" stroke="black" points="115.69,-25.22 118.11,-19.34 112.55,-22.42 115.69,-25.22"/>
<text text-anchor="middle" x="126.5" y="-33" font-family="Times,serif" font-size="10.00">confront</text>
</g>
</g>
</svg>
