<?xml version="1.0" encoding="UTF-8" standalone="no"?>
<!DOCTYPE svg PUBLIC "-//W3C//DTD SVG 1.1//EN"
 "http://www.w3.org/Graphics/SVG/1.1/DTD/svg11.dtd">
<!-- Generated by graphviz version 2.44.0 (20200408.0750)
 -->
<!-- Pages: 1 -->
<svg width="377pt" height="290pt"
 viewBox="0.00 0.00 376.90 289.85" xmlns="http://www.w3.org/2000/svg" xmlns:xlink="http://www.w3.org/1999/xlink">
<g id="graph0" class="graph" transform="scale(1 1) rotate(0) translate(7.2 282.65)">
<polygon fill="white" stroke="transparent" points="-7.2,7.2 -7.2,-282.65 369.7,-282.65 369.7,7.2 -7.2,7.2"/>
<!-- x0 -->
<g id="node1" class="node">
<title>x0</title>
<ellipse fill="none" stroke="black" cx="177" cy="-259.89" rx="15.61" ry="15.61"/>
<text text-anchor="middle" x="177" y="-257.39" font-family="Times,serif" font-size="10.00">1</text>
</g>
<!-- y1 -->
<g id="node2" class="node">
<title>y1</title>
<ellipse fill="none" stroke="black" cx="134" cy="-195.78" rx="15.61" ry="15.61"/>
<text text-anchor="middle" x="134" y="-193.28" font-family="Times,serif" font-size="10.00">2</text>
</g>
<!-- x0&#45;&gt;y1 -->
<g id="edge1" class="edge">
<title>x0&#45;&gt;y1</title>
<path fill="none" stroke="black" d="M168.5,-246.62C162.09,-237.35 153.19,-224.5 146.04,-214.17"/>
<polygon fill="black" stroke="black" points="147.62,-212.77 142.48,-209.03 144.17,-215.16 147.62,-212.77"/>
<text text-anchor="middle" x="139.2" y="-231.13" font-family="Times,serif" font-size="10.00">escalate</text>
</g>
<!-- y2 -->
<g id="node3" class="node">
<title>y2</title>
<polygon fill="none" stroke="black" points="247,-205.28 193,-205.28 193,-186.28 247,-186.28 247,-205.28"/>
<text text-anchor="middle" x="220" y="-193.28" font-family="Times,serif" font-size="10.00">0/0</text>
</g>
<!-- x0&#45;&gt;y2 -->
<g id="edge2" class="edge">
<title>x0&#45;&gt;y2</title>
<path fill="none" stroke="black" d="M185.5,-246.62C192.67,-236.27 202.93,-221.45 210.39,-210.66"/>
<polygon fill="black" stroke="black" points="212.32,-211.56 214.01,-205.43 208.87,-209.17 212.32,-211.56"/>
<text text-anchor="middle" x="215.5" y="-225.34" font-family="Times,serif" font-size="10.00">ignore</text>
</g>
<!-- x3 -->
<g id="node4" class="node">
<title>x3</title>
<polygon fill="none" stroke="black" points="126,-141.17 72,-141.17 72,-122.17 126,-122.17 126,-141.17"/>
<text text-anchor="middle" x="99" y="-129.17" font-family="Times,serif" font-size="10.00">10/&#45;10</text>
</g>
<!-- y1&#45;&gt;x3 -->
<g id="edge3" class="edge">
<title>y1&#45;&gt;x3</title>
<path fill="none" stroke="black" d="M126.75,-181.91C121,-171.72 112.99,-157.49 107.04,-146.95"/>
<polygon fill="black" stroke="black" points="108.76,-145.71 103.99,-141.52 105.1,-147.77 108.76,-145.71"/>
<text text-anchor="middle" x="93.85" y="-164.68" font-family="Times,serif" font-size="10.00">backdown</text>
</g>
<!-- x4 -->
<g id="node5" class="node">
<title>x4</title>
<ellipse fill="none" stroke="black" cx="185" cy="-131.67" rx="15.61" ry="15.61"/>
<text text-anchor="middle" x="185" y="-129.17" font-family="Times,serif" font-size="10.00">1</text>
</g>
<!-- y1&#45;&gt;x4 -->
<g id="edge4" class="edge">
<title>y1&#45;&gt;x4</title>
<path fill="none" stroke="black" d="M143.59,-183.1C151.5,-173.47 162.8,-159.7 171.6,-148.98"/>
<polygon fill="black" stroke="black" points="173.27,-150.27 175.45,-144.3 170.02,-147.6 173.27,-150.27"/>
<text text-anchor="middle" x="180.5" y="-161.23" font-family="Times,serif" font-size="10.00">confront</text>
</g>
<!-- y5 -->
<g id="node6" class="node">
<title>y5</title>
<ellipse fill="none" stroke="black" cx="121" cy="-67.56" rx="15.61" ry="15.61"/>
<text text-anchor="middle" x="121" y="-65.06" font-family="Times,serif" font-size="10.00">2</text>
</g>
<!-- x4&#45;&gt;y5 -->
<g id="edge5" class="edge">
<title>x4&#45;&gt;y5</title>
<path fill="none" stroke="black" d="M174.14,-120.13C163.69,-109.99 147.79,-94.56 136.1,-83.22"/>
<polygon fill="black" stroke="black" points="137.46,-81.61 131.7,-78.94 134.54,-84.62 137.46,-81.61"/>
<text text-anchor="middle" x="139.74" y="-102.36" font-family="Times,serif" font-size="10.00">retreat</text>
</g>
<!-- y6 -->
<g id="node7" class="node">
<title>y6</title>
<ellipse fill="none" stroke="black" cx="238" cy="-67.56" rx="15.61" ry="15.61"/>
<text text-anchor="middle" x="238" y="-65.06" font-family="Times,serif" font-size="10.00">2</text>
</g>
<!-- x4&#45;&gt;y6 -->
<g id="edge6" class="edge">
<title>x4&#45;&gt;y6</title>
<path fill="none" stroke="black" d="M194.72,-119.28C203.01,-109.56 215.03,-95.47 224.3,-84.61"/>
<polygon fill="black" stroke="black" points="226.04,-85.8 228.34,-79.88 222.85,-83.08 226.04,-85.8"/>
<text text-anchor="middle" x="225.5" y="-97.11" font-family="Times,serif" font-size="10.00">nuke</text>
</g>
<!-- y5&#45;&gt;y6 -->
<g id="edge11" class="edge">
<title>y5&#45;&gt;y6</title>
<path fill="none" stroke="black" stroke-dasharray="5,2" d="M137,-67.56C165.4,-67.56 193.81,-67.56 222.22,-67.56"/>
</g>
<!-- l1 -->
<g id="node8" class="node">
<title>l1</title>
<polygon fill="none" stroke="black" points="54,-19 0,-19 0,0 54,0 54,-19"/>
<text text-anchor="middle" x="27" y="-7" font-family="Times,serif" font-size="10.00">&#45;5/&#45;5</text>
</g>
<!-- y5&#45;&gt;l1 -->
<g id="edge7" class="edge">
<title>y5&#45;&gt;l1</title>
<path fill="none" stroke="black" d="M107.93,-58.76C92.11,-49.33 65.31,-33.35 46.92,-22.38"/>
<polygon fill="black" stroke="black" points="47.73,-20.42 41.5,-19.15 45.58,-24.02 47.73,-20.42"/>
<text text-anchor="middle" x="90" y="-33" font-family="Times,serif" font-size="10.00">retreat</text>
</g>
<!-- l2 -->
<g id="node9" class="node">
<title>l2</title>
<polygon fill="none" stroke="black" points="154.5,-19 97.5,-19 97.5,0 154.5,0 154.5,-19"/>
<text text-anchor="middle" x="126" y="-7" font-family="Times,serif" font-size="10.00">&#45;100/&#45;100</text>
</g>
<!-- y5&#45;&gt;l2 -->
<g id="edge8" class="edge">
<title>y5&#45;&gt;l2</title>
<path fill="none" stroke="black" d="M122.31,-51.83C123.04,-43.72 123.93,-33.68 124.66,-25.52"/>
<polygon fill="black" stroke="black" points="126.78,-25.36 125.22,-19.2 122.6,-24.99 126.78,-25.36"/>
<text text-anchor="middle" x="135.5" y="-33" font-family="Times,serif" font-size="10.00">nuke</text>
</g>
<!-- l3 -->
<g id="node10" class="node">
<title>l3</title>
<polygon fill="none" stroke="black" points="262.5,-19 205.5,-19 205.5,0 262.5,0 262.5,-19"/>
<text text-anchor="middle" x="234" y="-7" font-family="Times,serif" font-size="10.00">&#45;100/&#45;100</text>
</g>
<!-- y6&#45;&gt;l3 -->
<g id="edge9" class="edge">
<title>y6&#45;&gt;l3</title>
<path fill="none" stroke="black" d="M236.95,-51.83C236.37,-43.72 235.65,-33.68 235.07,-25.52"/>
<polygon fill="black" stroke="black" points="237.14,-25.03 234.62,-19.2 232.95,-25.33 237.14,-25.03"/>
<text text-anchor="middle" x="250" y="-33" font-family="Times,serif" font-size="10.00">retreat</text>
</g>
<!-- l4 -->
<g id="node11" class="node">
<title>l4</title>
<polygon fill="none" stroke="black" points="362.5,-19 305.5,-19 305.5,0 362.5,0 362.5,-19"/>
<text text-anchor="middle" x="334" y="-7" font-family="Times,serif" font-size="10.00">&#45;100/&#45;100</text>
</g>
<!-- y6&#45;&gt;l4 -->
<g id="edge10" class="edge">
<title>y6&#45;&gt;l4</title>
<path fill="none" stroke="black" d="M251.35,-58.76C267.5,-49.33 294.87,-33.35 313.66,-22.38"/>
<polygon fill="black" stroke="black" points="315.07,-23.99 319.19,-19.15 312.95,-20.36 315.07,-23.99"/>
<text text-anchor="middle" x="311.5" y="-33" font-family="Times,serif" font-size="10.00">nuke</text>
</g>
</g>
</svg>
